<svg width="32" height="32" viewBox="0 0 32 32" fill="none" xmlns="http://www.w3.org/2000/svg">
<circle cx="16.0003" cy="16.0001" r="13.3333" fill="white"/>
<path d="M16.0003 25.6001C12.667 25.6001 9.72033 23.8934 8.00033 21.3334C8.04033 18.6667 13.3337 17.2001 16.0003 17.2001C18.667 17.2001 23.9603 18.6667 24.0003 21.3334C22.2803 23.8934 19.3337 25.6001 16.0003 25.6001ZM16.0003 6.66675C17.0612 6.66675 18.0786 7.08818 18.8288 7.83832C19.5789 8.58847 20.0003 9.60588 20.0003 10.6667C20.0003 11.7276 19.5789 12.745 18.8288 13.4952C18.0786 14.2453 17.0612 14.6667 16.0003 14.6667C14.9395 14.6667 13.922 14.2453 13.1719 13.4952C12.4218 12.745 12.0003 11.7276 12.0003 10.6667C12.0003 9.60588 12.4218 8.58847 13.1719 7.83832C13.922 7.08818 14.9395 6.66675 16.0003 6.66675M16.0003 2.66675C14.2494 2.66675 12.5156 3.01162 10.8979 3.68169C9.2802 4.35175 7.81035 5.33388 6.57223 6.57199C4.07175 9.07248 2.66699 12.4639 2.66699 16.0001C2.66699 19.5363 4.07175 22.9277 6.57223 25.4282C7.81035 26.6663 9.2802 27.6484 10.8979 28.3185C12.5156 28.9885 14.2494 29.3334 16.0003 29.3334C19.5365 29.3334 22.9279 27.9287 25.4284 25.4282C27.9289 22.9277 29.3337 19.5363 29.3337 16.0001C29.3337 8.62675 23.3337 2.66675 16.0003 2.66675Z" fill="#F39835"/>
</svg>
