<svg width="48" height="48" viewBox="0 0 48 48" fill="none" xmlns="http://www.w3.org/2000/svg">
<path d="M38.5402 10.66C35.8802 9.41997 33.0002 8.51997 30.0002 7.99997C29.9739 7.99913 29.9478 8.00406 29.9236 8.01443C29.8994 8.0248 29.8778 8.04034 29.8602 8.05997C29.5002 8.71997 29.0802 9.57997 28.8002 10.24C25.6182 9.75997 22.3822 9.75997 19.2002 10.24C18.9202 9.55997 18.5002 8.71997 18.1202 8.05997C18.1002 8.01997 18.0402 7.99997 17.9802 7.99997C14.9802 8.51997 12.1202 9.41997 9.44023 10.66C9.42023 10.66 9.40023 10.68 9.38023 10.7C3.94023 18.84 2.44023 26.76 3.18023 34.6C3.18023 34.64 3.20023 34.68 3.24023 34.7C6.84023 37.34 10.3002 38.94 13.7202 40C13.7802 40.02 13.8402 40 13.8602 39.96C14.6602 38.86 15.3802 37.7 16.0002 36.48C16.0402 36.4 16.0002 36.32 15.9202 36.3C14.7802 35.86 13.7002 35.34 12.6402 34.74C12.5602 34.7 12.5602 34.58 12.6202 34.52C12.8402 34.36 13.0602 34.18 13.2802 34.02C13.3202 33.98 13.3802 33.98 13.4202 34C20.3002 37.14 27.7202 37.14 34.5202 34C34.5602 33.98 34.6202 33.98 34.6602 34.02C34.8802 34.2 35.1002 34.36 35.3202 34.54C35.4002 34.6 35.4002 34.72 35.3002 34.76C34.2602 35.38 33.1602 35.88 32.0202 36.32C31.9402 36.34 31.9202 36.44 31.9402 36.5C32.5802 37.72 33.3002 38.88 34.0802 39.98C34.1402 40 34.2002 40.02 34.2602 40C37.7002 38.94 41.1602 37.34 44.7602 34.7C44.8002 34.68 44.8202 34.64 44.8202 34.6C45.7002 25.54 43.3602 17.68 38.6202 10.7C38.6002 10.68 38.5802 10.66 38.5402 10.66ZM17.0402 29.82C14.9802 29.82 13.2602 27.92 13.2602 25.58C13.2602 23.24 14.9402 21.34 17.0402 21.34C19.1602 21.34 20.8402 23.26 20.8202 25.58C20.8202 27.92 19.1402 29.82 17.0402 29.82ZM30.9802 29.82C28.9202 29.82 27.2002 27.92 27.2002 25.58C27.2002 23.24 28.8802 21.34 30.9802 21.34C33.1002 21.34 34.7802 23.26 34.7602 25.58C34.7602 27.92 33.1002 29.82 30.9802 29.82Z" fill="white"/>
</svg>
